<svg xmlns="http://www.w3.org/2000/svg" viewBox="0 0 1600 533" width="1600" height="533" role="img" aria-label="Calibre HR Solutions">
  <defs>
    <radialGradient id="bg" cx="42%" cy="40%" r="85%">
      <stop offset="0%" stop-color="#0a2036"/><stop offset="55%" stop-color="#061a30"/><stop offset="100%" stop-color="#03101f"/>
    </radialGradient>
    <linearGradient id="green" x1="0" y1="0" x2="0" y2="1">
      <stop offset="0%" stop-color="#7ee8a0"/><stop offset="48%" stop-color="#3fce74"/><stop offset="100%" stop-color="#199247"/>
    </linearGradient>
    <linearGradient id="greenSq" x1="0" y1="0" x2="0.25" y2="1">
      <stop offset="0%" stop-color="#74e39a"/><stop offset="55%" stop-color="#34c46b"/><stop offset="100%" stop-color="#19b24f"/>
    </linearGradient>
    <linearGradient id="blueSq" x1="0" y1="0" x2="0.4" y2="1">
      <stop offset="0%" stop-color="#2aa6c9"/><stop offset="60%" stop-color="#1a7fa6"/><stop offset="100%" stop-color="#125a7d"/>
    </linearGradient>
  </defs>

  <!-- icon -->
  <g fill="none">
    <rect x="190" y="166" width="205" height="205" stroke="url(#blueSq)" stroke-width="6.5"/>
    <rect x="148" y="124" width="205" height="205" stroke="url(#greenSq)" stroke-width="6.5"/>
  </g>
  <g transform="translate(0,279.00)">
    <g fill="#ffffff"><path transform="translate(202.560,0) scale(0.090000,-0.090000)" d="M418 -12Q337 -12 267.5 14.5Q198 41 147.0 90.0Q96 139 67.5 205.0Q39 271 39 350Q39 429 67.5 495.0Q96 561 147.5 610.0Q199 659 268.0 685.5Q337 712 419 712Q510 712 583.5 680.5Q657 649 707 588L603 492Q567 533 523.0 553.5Q479 574 427 574Q378 574 337.0 558.0Q296 542 266.0 512.0Q236 482 219.5 441.0Q203 400 203 350Q203 300 219.5 259.0Q236 218 266.0 188.0Q296 158 337.0 142.0Q378 126 427 126Q479 126 523.0 146.5Q567 167 603 209L707 113Q657 52 583.5 20.0Q510 -12 418 -12Z"/></g>
    <g fill="url(#green)"><path transform="translate(267.720,0) scale(0.090000,-0.090000)" d="M563 0V700H725V0ZM83 0V700H245V0ZM233 287V424H575V287Z"/></g>
  </g>

  <!-- wordmark -->
  <g transform="translate(0,288)"><g fill="#ffffff"><path transform="translate(470.000,0) scale(0.150000,-0.150000)" d="M419 -14Q336 -14 265.5 12.5Q195 39 143.5 88.0Q92 137 63.0 203.5Q34 270 34 350Q34 430 63.0 496.5Q92 563 143.5 612.0Q195 661 265.5 687.5Q336 714 419 714Q516 714 592.5 680.0Q669 646 720 582L594 468Q560 508 519.5 529.0Q479 550 429 550Q386 550 350.0 536.0Q314 522 288.5 495.5Q263 469 248.5 432.0Q234 395 234 350Q234 305 248.5 268.0Q263 231 288.5 204.5Q314 178 350.0 164.0Q386 150 429 150Q479 150 519.5 171.0Q560 192 594 232L720 118Q669 55 592.5 20.5Q516 -14 419 -14Z"/>
<path transform="translate(579.500,0) scale(0.150000,-0.150000)" d="M-14 0 295 700H490L800 0H594L352 603H430L188 0ZM155 136 206 282H548L599 136Z"/>
<path transform="translate(697.400,0) scale(0.150000,-0.150000)" d="M70 0V700H268V157H602V0Z"/>
<path transform="translate(788.900,0) scale(0.150000,-0.150000)" d="M70 0V700H268V0Z"/>
<path transform="translate(839.750,0) scale(0.150000,-0.150000)" d="M70 0V700H428Q566 700 634.0 649.5Q702 599 702 517Q702 463 673.5 422.5Q645 382 593.5 358.5Q542 335 471 335L491 383Q565 383 620.0 360.5Q675 338 705.5 295.5Q736 253 736 192Q736 101 662.5 50.5Q589 0 448 0ZM266 143H432Q483 143 509.5 160.5Q536 178 536 214Q536 250 509.5 267.5Q483 285 432 285H252V422H402Q452 422 477.0 439.0Q502 456 502 490Q502 524 477.0 540.5Q452 557 402 557H266Z"/>
<path transform="translate(955.100,0) scale(0.150000,-0.150000)" d="M70 0V700H383Q536 700 618.5 630.5Q701 561 701 441Q701 362 663.0 304.5Q625 247 555.5 216.5Q486 186 390 186H180L268 269V0ZM503 0 329 255H540L715 0ZM268 248 180 339H378Q440 339 470.5 366.0Q501 393 501 441Q501 490 470.5 517.0Q440 544 378 544H180L268 635Z"/>
<path transform="translate(1066.100,0) scale(0.150000,-0.150000)" d="M70 0V700H619V547H266V153H632V0ZM252 281V429H577V281Z"/></g><g fill="url(#green)"><path transform="translate(1214.900,0) scale(0.150000,-0.150000)" d="M538 0V700H736V0ZM70 0V700H268V0ZM254 273V437H552V273Z"/>
<path transform="translate(1335.800,0) scale(0.150000,-0.150000)" d="M70 0V700H383Q536 700 618.5 630.5Q701 561 701 441Q701 362 663.0 304.5Q625 247 555.5 216.5Q486 186 390 186H180L268 269V0ZM503 0 329 255H540L715 0ZM268 248 180 339H378Q440 339 470.5 366.0Q501 393 501 441Q501 490 470.5 517.0Q440 544 378 544H180L268 635Z"/></g></g>
  <!-- solutions -->
  <g transform="translate(0,360)" fill="#9aa7b4"><path transform="translate(770.880,0) scale(0.040000,-0.040000)" d="M309 -8Q229 -8 156.0 16.5Q83 41 41 80L78 158Q118 123 180.0 100.0Q242 77 309 77Q370 77 408.0 91.0Q446 105 464.0 129.5Q482 154 482 185Q482 221 458.5 243.0Q435 265 397.5 278.5Q360 292 315.0 302.0Q270 312 224.5 325.5Q179 339 141.5 360.0Q104 381 81.0 416.5Q58 452 58 508Q58 562 86.5 607.5Q115 653 174.5 680.5Q234 708 326 708Q387 708 447.0 692.0Q507 676 551 646L518 566Q473 596 423.0 609.5Q373 623 326 623Q267 623 229.0 608.0Q191 593 173.5 568.0Q156 543 156 512Q156 475 179.5 453.0Q203 431 240.5 418.0Q278 405 323.0 394.5Q368 384 413.5 371.0Q459 358 496.5 337.0Q534 316 557.0 281.0Q580 246 580 191Q580 138 551.0 92.5Q522 47 461.5 19.5Q401 -8 309 -8Z"/>
<path transform="translate(812.520,0) scale(0.040000,-0.040000)" d="M421 -8Q341 -8 272.5 19.0Q204 46 154.0 94.5Q104 143 76.0 208.0Q48 273 48 350Q48 427 76.0 492.0Q104 557 154.0 605.5Q204 654 272.0 681.0Q340 708 421 708Q501 708 568.5 681.5Q636 655 686.5 606.5Q737 558 764.5 493.0Q792 428 792 350Q792 272 764.5 207.0Q737 142 686.5 93.5Q636 45 568.5 18.5Q501 -8 421 -8ZM421 81Q479 81 528.5 101.0Q578 121 614.5 157.5Q651 194 671.5 243.0Q692 292 692 350Q692 408 671.5 457.0Q651 506 614.5 542.5Q578 579 528.5 599.0Q479 619 421 619Q362 619 312.5 599.0Q263 579 226.0 542.5Q189 506 168.5 457.0Q148 408 148 350Q148 292 168.5 243.0Q189 194 226.0 157.5Q263 121 312.5 101.0Q362 81 421 81Z"/>
<path transform="translate(862.920,0) scale(0.040000,-0.040000)" d="M105 0V700H205V87H584V0Z"/>
<path transform="translate(903.480,0) scale(0.040000,-0.040000)" d="M395 -8Q257 -8 178.0 71.0Q99 150 99 302V700H199V306Q199 189 250.5 135.0Q302 81 396 81Q491 81 542.5 135.0Q594 189 594 306V700H691V302Q691 150 612.5 71.0Q534 -8 395 -8Z"/>
<path transform="translate(951.920,0) scale(0.040000,-0.040000)" d="M244 0V613H4V700H583V613H343V0Z"/>
<path transform="translate(992.200,0) scale(0.040000,-0.040000)" d="M105 0V700H205V0Z"/>
<path transform="translate(1021.400,0) scale(0.040000,-0.040000)" d="M421 -8Q341 -8 272.5 19.0Q204 46 154.0 94.5Q104 143 76.0 208.0Q48 273 48 350Q48 427 76.0 492.0Q104 557 154.0 605.5Q204 654 272.0 681.0Q340 708 421 708Q501 708 568.5 681.5Q636 655 686.5 606.5Q737 558 764.5 493.0Q792 428 792 350Q792 272 764.5 207.0Q737 142 686.5 93.5Q636 45 568.5 18.5Q501 -8 421 -8ZM421 81Q479 81 528.5 101.0Q578 121 614.5 157.5Q651 194 671.5 243.0Q692 292 692 350Q692 408 671.5 457.0Q651 506 614.5 542.5Q578 579 528.5 599.0Q479 619 421 619Q362 619 312.5 599.0Q263 579 226.0 542.5Q189 506 168.5 457.0Q148 408 148 350Q148 292 168.5 243.0Q189 194 226.0 157.5Q263 121 312.5 101.0Q362 81 421 81Z"/>
<path transform="translate(1071.800,0) scale(0.040000,-0.040000)" d="M105 0V700H187L650 125H607V700H707V0H625L162 575H205V0Z"/>
<path transform="translate(1121.080,0) scale(0.040000,-0.040000)" d="M309 -8Q229 -8 156.0 16.5Q83 41 41 80L78 158Q118 123 180.0 100.0Q242 77 309 77Q370 77 408.0 91.0Q446 105 464.0 129.5Q482 154 482 185Q482 221 458.5 243.0Q435 265 397.5 278.5Q360 292 315.0 302.0Q270 312 224.5 325.5Q179 339 141.5 360.0Q104 381 81.0 416.5Q58 452 58 508Q58 562 86.5 607.5Q115 653 174.5 680.5Q234 708 326 708Q387 708 447.0 692.0Q507 676 551 646L518 566Q473 596 423.0 609.5Q373 623 326 623Q267 623 229.0 608.0Q191 593 173.5 568.0Q156 543 156 512Q156 475 179.5 453.0Q203 431 240.5 418.0Q278 405 323.0 394.5Q368 384 413.5 371.0Q459 358 496.5 337.0Q534 316 557.0 281.0Q580 246 580 191Q580 138 551.0 92.5Q522 47 461.5 19.5Q401 -8 309 -8Z"/></g>
  <line x1="640" y1="346" x2="742" y2="346" stroke="#1f86ad" stroke-width="3" stroke-linecap="round"/>
  <line x1="1170" y1="346" x2="1272" y2="346" stroke="#33c46c" stroke-width="3" stroke-linecap="round"/>
</svg>